<svg id="Layer_1" xmlns="http://www.w3.org/2000/svg" viewBox="0 0 129 129"><style>.st0{fill:#ec1c23}</style><path class="st0" d="M88.8 36.4L55.2 76.7 40 61.6c-.9-.9-2.1-1.4-3.4-1.4-1.3 0-2.5.5-3.4 1.4-1.9 1.9-1.9 5 0 6.9l18.9 18.9c.9.9 2.1 1.4 3.4 1.4h.3c1.4-.1 2.6-.7 3.5-1.8l37-44.3c1.7-2 1.4-5.1-.6-6.9-2.1-1.7-5.1-1.4-6.9.6z"/><path class="st0" d="M114.1 33.3c-.7-1.1-1.8-1.9-3-2.1-1.3-.3-2.5-.1-3.6.6-2.3 1.4-2.9 4.4-1.5 6.6 12.3 19.5 9.5 44.5-6.9 60.9-9.2 9.2-21.6 14.3-34.7 14.3-13.1 0-25.5-5.1-34.7-14.3-9.3-9.3-14.4-21.6-14.4-34.7 0-13.1 5.1-25.5 14.3-34.7 16.3-16.2 41.3-19.1 60.8-7 2.2 1.4 5.2.7 6.6-1.5 1.4-2.2.7-5.2-1.5-6.6C72.2.1 42.3 3.5 22.9 23 11.8 34 5.7 48.8 5.7 64.5s6.1 30.5 17.2 41.6c11.1 11.1 25.9 17.2 41.5 17.2s30.4-6.1 41.5-17.2c19.6-19.5 22.9-49.5 8.2-72.8z"/></svg>