<svg id="Layer_1" xmlns="http://www.w3.org/2000/svg" viewBox="0 0 22 24"><style>.st0{fill:#ec1c23}</style><path class="st0" d="M21.1 0H.9C.4 0 0 .4 0 .9v22.2c0 .5.4.9.9.9h15.6c.2 0 .5-.1.6-.3l4.6-4.6c.2-.2.3-.4.3-.6V.9c0-.5-.4-.9-.9-.9zM1.8 1.8h18.4v15.7h-3.7c-.5 0-.9.4-.9.9v3.7H1.8V1.8zm15.6 19.1v-1.5h1.5l-1.5 1.5zM8.3 6.2h8.9c.5 0 .9-.4.9-.9s-.4-.9-.9-.9H8.3c-.5 0-.9.4-.9.9 0 .4.4.8.9.9zm0 4.5h8.9c.5 0 .9-.4.9-.9s-.4-.9-.9-.9H8.3c-.5 0-.9.4-.9.9s.4.9.9.9zm-3-6.4c-.2 0-.5.1-.6.3-.4.4-.4.9 0 1.3.3.4.9.4 1.3 0s.4-.9 0-1.3c-.2-.2-.4-.3-.7-.3zm0 4.6c-.2 0-.5.1-.6.3-.4.4-.4.9 0 1.3.3.4.9.4 1.3 0s.4-.9 0-1.3c-.2-.3-.4-.3-.7-.3zm11.9 6.3c.5 0 .9-.4.9-.9s-.4-.9-.9-.9H8.3c-.5 0-.9.4-.9.9s.4.9.9.9h8.9zM5.3 13.4c-.2 0-.5.1-.6.3-.4.4-.4.9 0 1.3.3.3.9.3 1.3 0 .4-.4.4-.9 0-1.3-.2-.2-.4-.3-.7-.3z"/></svg>