<svg id="Layer_1" xmlns="http://www.w3.org/2000/svg" viewBox="0 0 28 26"><style>.st0{fill:#ec1c23}</style><path class="st0" d="M18.4 0c-4.7 0-9.6 1.5-9.6 4.3v3.5c0 .5.4.9.9.9s.9-.4.9-.9v-.9c2.4 1.3 5.1 1.9 7.9 1.8 2.7.1 5.4-.5 7.9-1.8v.9c0 .8-2.2 2.2-6.2 2.5-.5 0-.8.4-.8.9s.4.8.9.8h.1c2.1-.1 4.2-.7 6.1-1.7v.9c0 .7-1.6 1.8-4.5 2.3-.5.1-.8.5-.7 1 .1.4.4.7.9.7h.2c1.5-.2 2.9-.7 4.2-1.5v.9c0 .7-1.6 1.8-4.5 2.3-.5.1-.8.5-.7 1 .1.4.4.7.9.7h.2c1.5-.2 2.9-.7 4.2-1.5v.3c.1.7-.2 1.3-.8 1.6-1.1.8-2.4 1.2-3.7 1.3-.5 0-.8.4-.8.9s.4.8.9.8h.1c3.9-.3 6.1-2.9 6.1-4V4.3C28 1.5 23 0 18.4 0zm0 6.9c-4.8 0-7.9-1.5-7.9-2.6s3.1-2.6 7.9-2.6 7.9 1.5 7.9 2.6-3.1 2.6-7.9 2.6zm-8.8 3.5C5 10.4 0 11.9 0 14.7v6.9C0 24.5 5 26 9.6 26s9.6-1.5 9.6-4.3v-6.9c0-2.9-4.9-4.4-9.6-4.4zm7.9 11.3c0 1.1-3.1 2.6-7.9 2.6s-7.9-1.5-7.9-2.6v-.9c2.4 1.3 5.1 1.9 7.9 1.8 2.7.1 5.4-.5 7.9-1.8v.9zm0-3.5c0 1.1-3.1 2.6-7.9 2.6s-7.9-1.5-7.9-2.6v-.9c2.4 1.3 5.1 1.9 7.9 1.8 2.7.1 5.4-.5 7.9-1.8v.9zm-7.9-.9c-4.8 0-7.9-1.5-7.9-2.6s3.1-2.6 7.9-2.6 7.9 1.5 7.9 2.6-3.1 2.6-7.9 2.6z"/></svg>