<svg id="Layer_1" xmlns="http://www.w3.org/2000/svg" viewBox="0 0 489.4 489.4"><style>.st0{fill:#5b5b5b}</style><path class="st0" d="M398.6 309.2c-34.2 0-64.1 19.2-79.3 47.4l-52.4-99.3L386.6 29.6c5.2-9.4 2.1-21.9-8.3-27.1-9.4-5.2-21.9-2.1-27.1 8.3l-107 203.5L137.6 11.8c-5.2-9.4-16.7-13.5-27.1-8.3-9.4 5.2-13.5 16.7-8.3 27.1l119.7 226.2-52.2 99.2c-15.4-27.9-45-46.8-79-46.8C41 309.2.6 349.6.6 399.3s40.4 90.1 90.1 90.1c37.1 0 69.1-22.6 82.9-54.7l71-135.2 69.5 131.2c12.8 34.2 45.8 58.6 84.5 58.6 49.7 0 90.1-40.4 90.1-90.1s-40.4-90-90.1-90zM90.7 448.5c-27.1 0-49.1-22-49.1-49.1s22-49.1 49.1-49.1 49.1 22 49.1 49.1-22 49.1-49.1 49.1zm307.9 0c-27.1 0-49.1-22-49.1-49.1s22-49.1 49.1-49.1 49.1 22 49.1 49.1-22 49.1-49.1 49.1z"/></svg>