<svg id="Layer_1" xmlns="http://www.w3.org/2000/svg" viewBox="0 0 480.6 480.6"><style>.st0{fill:#5b5b5b}</style><path class="st0" d="M389 1.5H100.1c-42.7 0-77.4 29.1-77.4 64.9v357.1c0 31.2 28.5 55.6 64.9 55.6h373c5 0 9.8-2.1 13.1-5.7 3.1-3.4 4.5-7.8 4.1-12.4V103.8c0-10-8.2-18.2-18.2-18.2s-18.2 8.2-18.2 18.2v336.8H86.6c-13.8 0-28.5-7.3-28.5-18.1s14.7-18.1 28.5-18.1H389c10 0 18.2-8.2 18.2-18.2V19.7c0-10-8.2-18.2-18.2-18.2zm-18.2 366.4H87.7c-8.8 0-17.4 1.5-25.5 4.4l-2 .7V66.4c0-15.2 17.9-27.5 39.9-27.5h270.7v329z"/><path class="st0" d="M285.9 110.5H138c-9.5 0-18.2 8.7-18.2 18.2 0 10 8.2 18.2 18.2 18.2h146.8c10.3 0 19.3-8.5 19.3-18.2 0-10-8.2-18.2-18.2-18.2z"/></svg>