<svg id="Layer_1" xmlns="http://www.w3.org/2000/svg" viewBox="0 0 129 129"><style>.st0{fill:#5b5b5b}</style><path class="st0" d="M10.5 128.1h107.9c2.3 0 4.1-1.8 4.1-4.1V14.5c0-2.3-1.8-4.1-4.1-4.1H98.1V6.9c0-2.3-1.8-4.1-4.1-4.1s-4.1 1.8-4.1 4.1v3.5H39.7V6.9c0-2.3-1.8-4.1-4.1-4.1s-4.1 1.8-4.1 4.1v3.5h-21c-2.3 0-4.1 1.8-4.1 4.1v109.6c0 2.2 1.9 4 4.1 4zm4.1-109.5h16.9v2.2c0 2.3 1.8 4.1 4.1 4.1s4.1-1.8 4.1-4.1v-2.2h50.2v2.2c0 2.3 1.8 4.1 4.1 4.1s4.1-1.8 4.1-4.1v-2.2h16.3v10.6H14.6V18.6zm0 18.8h99.7V120H14.6V37.4z"/><path class="st0" d="M96 62.2H33c-2.3 0-4.1 1.8-4.1 4.1s1.8 4.1 4.1 4.1h63c2.3 0 4.1-1.8 4.1-4.1s-1.8-4.1-4.1-4.1zM64.5 86H33c-2.3 0-4.1 1.8-4.1 4.1s1.8 4.1 4.1 4.1h31.5c2.3 0 4.1-1.8 4.1-4.1S66.8 86 64.5 86z"/></svg>