<svg xmlns="http://www.w3.org/2000/svg" viewBox="0 0 308.99 31.75"><defs><style>.cls-1{fill:#ed1c24}</style></defs><title>Asset 1</title><g id="Layer_2" data-name="Layer 2"><g id="Layer_1-2" data-name="Layer 1"><path class="cls-1" d="M16.05.68a19.22 19.22 0 0 1 8.53 1.92v6.11a12.4 12.4 0 0 0-7.46-2.35c-5.25 0-10.55 3-10.55 10.2 0 6.57 5.34 9.47 10.55 9.47a11.55 11.55 0 0 0 7.68-2.47v6.27a19.85 19.85 0 0 1-8.67 1.92C8.15 31.75 0 27 0 16.56 0 5.63 8.07.68 16.05.68zM34.53 0v31.16h-5.94V0zM47.8 10.07c8.49 0 11.22 6.7 9.86 12.76H43.23c.69 3 3.84 4.23 7.22 4.23a15.33 15.33 0 0 0 6.18-1.24v4.65a19.47 19.47 0 0 1-7.51 1.28c-6.49 0-11.86-3.71-11.86-10.84A10.32 10.32 0 0 1 47.8 10.07zm.2 4.53a4.51 4.51 0 0 0-4.81 4.4h9.13c.22-1.42-.59-4.4-4.32-4.4zM80.62 10.67l-8.45 20.49h-6.23l-8.45-20.49h6.31l5.25 14.21 5.25-14.21zM90.73 10.07c8.5 0 11.23 6.7 9.86 12.76H86.17c.68 3 3.84 4.23 7.21 4.23a15.34 15.34 0 0 0 6.19-1.24v4.65a19.51 19.51 0 0 1-7.51 1.28c-6.49 0-11.87-3.71-11.87-10.84a10.32 10.32 0 0 1 10.54-10.84zM91 14.6a4.52 4.52 0 0 0-4.88 4.4h9.14c.21-1.42-.6-4.4-4.26-4.4zM117 10.24V16c-3.24-.56-6.36.68-7.6 3.11v12h-5.93V10.67h5.25v3.07c1.43-2.26 4.42-3.88 8.28-3.5zM134.05 1.28c6.36 0 10.33 2.43 10.33 7.55a6.42 6.42 0 0 1-4.52 6.53c2.94.86 5.72 3 5.72 7.43 0 6.79-6.53 8.37-11.74 8.37H121V1.28zm0 17h-6.74V26h6.4c2.86 0 5.42-.6 5.42-3.84s-2.47-3.89-5.04-3.89zm-.55-11.75h-6.11v6.83h6.45c2.43 0 4.18-1.11 4.18-3.42s-1.71-3.41-4.52-3.41zM163.67.68c10.59 0 15.88 7.43 15.88 15.54s-5.29 15.53-15.88 15.53-15.88-7.42-15.88-15.53S153.09.68 163.67.68zm0 5.94c-6.23 0-9.35 4.35-9.35 9.6s3.12 9.6 9.35 9.6 9.3-4.35 9.3-9.6-3.11-9.6-9.3-9.6z"/><path class="cls-1" d="M177.5 31.16l10.71-15.5-10.07-14.38h7.47l6.61 9.82 6.58-9.82h7.51l-10.08 14.38L207 31.16h-7.51l-7.22-10.89L185 31.16zM212.32 18.74a3.32 3.32 0 0 1-3.62-3.5 3.61 3.61 0 0 1 7.21 0 3.29 3.29 0 0 1-3.59 3.5zm0 13a3.34 3.34 0 0 1-3.62-3.5 3.61 3.61 0 0 1 7.21 0 3.31 3.31 0 0 1-3.59 3.47zM234.64.68a19.26 19.26 0 0 1 8.54 1.92v6.11a12.41 12.41 0 0 0-7.47-2.35c-5.25 0-10.54 3-10.54 10.2 0 6.57 5.33 9.47 10.54 9.47a11.53 11.53 0 0 0 7.68-2.47v6.27a19.8 19.8 0 0 1-8.66 1.92c-8 0-16.13-4.78-16.13-15.19.04-10.93 8.06-15.88 16.04-15.88zM247.79 31.16V1.28h12.29c5.8 0 11.86 2.18 11.86 9.73 0 5.12-2.9 7.73-6.53 8.88l8.92 11.27H267l-8.12-10.46h-4.69v10.46zm6.4-15.8h6.19c2.69 0 5-1.19 5-4.22s-2.34-4.23-5-4.23h-6.19zM309 1.28v29.88h-6.4v-18.4l-7.9 12H291l-7.9-12v18.4h-6.4V1.28h5.93l10.25 15.54 10.2-15.54zM16.05.68a19.22 19.22 0 0 1 8.53 1.92v6.11a12.4 12.4 0 0 0-7.46-2.35c-5.25 0-10.55 3-10.55 10.2 0 6.57 5.34 9.47 10.55 9.47a11.55 11.55 0 0 0 7.68-2.47v6.27a19.85 19.85 0 0 1-8.67 1.92C8.15 31.75 0 27 0 16.56 0 5.63 8.07.68 16.05.68zM34.53 0v31.16h-5.94V0zM47.8 10.07c8.49 0 11.22 6.7 9.86 12.76H43.23c.69 3 3.84 4.23 7.22 4.23a15.33 15.33 0 0 0 6.18-1.24v4.65a19.47 19.47 0 0 1-7.51 1.28c-6.49 0-11.86-3.71-11.86-10.84A10.32 10.32 0 0 1 47.8 10.07zm.2 4.53a4.51 4.51 0 0 0-4.81 4.4h9.13c.22-1.42-.59-4.4-4.32-4.4zM80.62 10.67l-8.45 20.49h-6.23l-8.45-20.49h6.31l5.25 14.21 5.25-14.21zM90.73 10.07c8.5 0 11.23 6.7 9.86 12.76H86.17c.68 3 3.84 4.23 7.21 4.23a15.34 15.34 0 0 0 6.19-1.24v4.65a19.51 19.51 0 0 1-7.51 1.28c-6.49 0-11.87-3.71-11.87-10.84a10.32 10.32 0 0 1 10.54-10.84zM91 14.6a4.52 4.52 0 0 0-4.88 4.4h9.14c.21-1.42-.6-4.4-4.26-4.4zM117 10.24V16c-3.24-.56-6.36.68-7.6 3.11v12h-5.93V10.67h5.25v3.07c1.43-2.26 4.42-3.88 8.28-3.5zM134.05 1.28c6.36 0 10.33 2.43 10.33 7.55a6.42 6.42 0 0 1-4.52 6.53c2.94.86 5.72 3 5.72 7.43 0 6.79-6.53 8.37-11.74 8.37H121V1.28zm0 17h-6.74V26h6.4c2.86 0 5.42-.6 5.42-3.84s-2.47-3.89-5.04-3.89zm-.55-11.75h-6.11v6.83h6.45c2.43 0 4.18-1.11 4.18-3.42s-1.71-3.41-4.52-3.41z"/><path class="cls-1" d="M163.67.68c10.59 0 15.88 7.43 15.88 15.54s-5.29 15.53-15.88 15.53-15.88-7.42-15.88-15.53S153.09.68 163.67.68zm0 5.94c-6.23 0-9.35 4.35-9.35 9.6s3.12 9.6 9.35 9.6 9.3-4.35 9.3-9.6-3.11-9.6-9.3-9.6z"/><path class="cls-1" d="M177.5 31.16l10.71-15.5-10.07-14.38h7.47l6.61 9.82 6.58-9.82h7.51l-10.08 14.38L207 31.16h-7.51l-7.22-10.89L185 31.16zM212.32 18.74a3.32 3.32 0 0 1-3.62-3.5 3.61 3.61 0 0 1 7.21 0 3.29 3.29 0 0 1-3.59 3.5zm0 13a3.34 3.34 0 0 1-3.62-3.5 3.61 3.61 0 0 1 7.21 0 3.31 3.31 0 0 1-3.59 3.47zM234.64.68a19.26 19.26 0 0 1 8.54 1.92v6.11a12.41 12.41 0 0 0-7.47-2.35c-5.25 0-10.54 3-10.54 10.2 0 6.57 5.33 9.47 10.54 9.47a11.53 11.53 0 0 0 7.68-2.47v6.27a19.8 19.8 0 0 1-8.66 1.92c-8 0-16.13-4.78-16.13-15.19.04-10.93 8.06-15.88 16.04-15.88zM247.79 31.16V1.28h12.29c5.8 0 11.86 2.18 11.86 9.73 0 5.12-2.9 7.73-6.53 8.88l8.92 11.27H267l-8.12-10.46h-4.69v10.46zm6.4-15.8h6.19c2.69 0 5-1.19 5-4.22s-2.34-4.23-5-4.23h-6.19zM309 1.28v29.88h-6.4v-18.4l-7.9 12H291l-7.9-12v18.4h-6.4V1.28h5.93l10.25 15.54 10.2-15.54z"/></g></g></svg>