<?xml version="1.0" encoding="utf-8"?>
<!-- Generator: Adobe Illustrator 22.0.0, SVG Export Plug-In . SVG Version: 6.00 Build 0)  -->
<svg version="1.1" id="Layer_1" xmlns="http://www.w3.org/2000/svg" xmlns:xlink="http://www.w3.org/1999/xlink" x="0px" y="0px"
	 viewBox="0 0 129 129" style="enable-background:new 0 0 129 129;" xml:space="preserve">
<style type="text/css">
	.st0{fill:#5B5B5B;}
</style>
<g>
	<path class="st0" d="M88.8,36.4L55.2,76.7L40,61.6c-0.9-0.9-2.1-1.4-3.4-1.4c-1.3,0-2.5,0.5-3.4,1.4c-1.9,1.9-1.9,5,0,6.9
		l18.9,18.9c0.9,0.9,2.1,1.4,3.4,1.4l0.3,0c1.4-0.1,2.6-0.7,3.5-1.8l37-44.3c1.7-2,1.4-5.1-0.6-6.9C93.6,34.1,90.6,34.4,88.8,36.4z"
		/>
	<path class="st0" d="M114.1,33.3c-0.7-1.1-1.8-1.9-3-2.1c-1.3-0.3-2.5-0.1-3.6,0.6c-2.3,1.4-2.9,4.4-1.5,6.6
		c12.3,19.5,9.5,44.5-6.9,60.9c-9.2,9.2-21.6,14.3-34.7,14.3c-13.1,0-25.5-5.1-34.7-14.3C20.4,90,15.3,77.7,15.3,64.6
		c0-13.1,5.1-25.5,14.3-34.7c16.3-16.2,41.3-19.1,60.8-7c2.2,1.4,5.2,0.7,6.6-1.5c1.4-2.2,0.7-5.2-1.5-6.6l0,0
		C72.2,0.1,42.3,3.5,22.9,23C11.8,34,5.7,48.8,5.7,64.5s6.1,30.5,17.2,41.6c11.1,11.1,25.9,17.2,41.5,17.2s30.4-6.1,41.5-17.2
		C125.5,86.6,128.8,56.6,114.1,33.3z"/>
</g>
</svg>
