<?xml version="1.0" encoding="utf-8"?>
<!-- Generator: Adobe Illustrator 22.0.0, SVG Export Plug-In . SVG Version: 6.00 Build 0)  -->
<svg version="1.1" id="Layer_1" xmlns="http://www.w3.org/2000/svg" xmlns:xlink="http://www.w3.org/1999/xlink" x="0px" y="0px"
	 viewBox="0 0 129 129" style="enable-background:new 0 0 129 129;" xml:space="preserve">
<style type="text/css">
	.st0{fill:#EC1C23;}
</style>
<g>
	<g>
		<path class="st0" d="M10.5,128.1h107.9c2.3,0,4.1-1.8,4.1-4.1V14.5c0-2.3-1.8-4.1-4.1-4.1H98.1V6.9c0-2.3-1.8-4.1-4.1-4.1
			c-2.3,0-4.1,1.8-4.1,4.1v3.5H39.7V6.9c0-2.3-1.8-4.1-4.1-4.1s-4.1,1.8-4.1,4.1v3.5h-21c-2.3,0-4.1,1.8-4.1,4.1v109.6
			C6.4,126.3,8.3,128.1,10.5,128.1z M14.6,18.6h16.9v2.2c0,2.3,1.8,4.1,4.1,4.1s4.1-1.8,4.1-4.1v-2.2h50.2v2.2
			c0,2.3,1.8,4.1,4.1,4.1c2.3,0,4.1-1.8,4.1-4.1v-2.2h16.3v10.6H14.6V18.6z M14.6,37.4h99.7V120H14.6V37.4z"/>
		<path class="st0" d="M96,62.2H33c-2.3,0-4.1,1.8-4.1,4.1s1.8,4.1,4.1,4.1h63c2.3,0,4.1-1.8,4.1-4.1C100.1,64,98.3,62.2,96,62.2z"
			/>
		<path class="st0" d="M64.5,86H33c-2.3,0-4.1,1.8-4.1,4.1c0,2.3,1.8,4.1,4.1,4.1h31.5c2.3,0,4.1-1.8,4.1-4.1S66.8,86,64.5,86z"/>
	</g>
</g>
</svg>
