<?xml version="1.0" encoding="utf-8"?>
<!-- Generator: Adobe Illustrator 22.0.0, SVG Export Plug-In . SVG Version: 6.00 Build 0)  -->
<svg version="1.1" id="Layer_1" xmlns="http://www.w3.org/2000/svg" xmlns:xlink="http://www.w3.org/1999/xlink" x="0px" y="0px"
	 viewBox="0 0 28 28" style="enable-background:new 0 0 28 26;" xml:space="preserve">
<style type="text/css">
	.st0{fill:#EC1C23;}
</style>
<path class="st0" d="M18.4,0c-4.7,0-9.6,1.5-9.6,4.3v3.5c0,0.5,0.4,0.9,0.9,0.9s0.9-0.4,0.9-0.9V6.9c2.4,1.3,5.1,1.9,7.9,1.8
	c2.7,0.1,5.4-0.5,7.9-1.8v0.9c0,0.8-2.2,2.2-6.2,2.5c-0.5,0-0.8,0.4-0.8,0.9c0,0.5,0.4,0.8,0.9,0.8c0,0,0,0,0.1,0
	c2.1-0.1,4.2-0.7,6.1-1.7v0.9c0,0.7-1.6,1.8-4.5,2.3c-0.5,0.1-0.8,0.5-0.7,1c0.1,0.4,0.4,0.7,0.9,0.7c0.1,0,0.1,0,0.2,0
	c1.5-0.2,2.9-0.7,4.2-1.5v0.9c0,0.7-1.6,1.8-4.5,2.3c-0.5,0.1-0.8,0.5-0.7,1c0.1,0.4,0.4,0.7,0.9,0.7c0.1,0,0.1,0,0.2,0
	c1.5-0.2,2.9-0.7,4.2-1.5v0.3c0.1,0.7-0.2,1.3-0.8,1.6c-1.1,0.8-2.4,1.2-3.7,1.3c-0.5,0-0.8,0.4-0.8,0.9c0,0.5,0.4,0.8,0.9,0.8
	c0,0,0,0,0.1,0c3.9-0.3,6.1-2.9,6.1-4V4.3C28,1.5,23,0,18.4,0z M18.4,6.9c-4.8,0-7.9-1.5-7.9-2.6s3.1-2.6,7.9-2.6s7.9,1.5,7.9,2.6
	S23.2,6.9,18.4,6.9z M9.6,10.4C5,10.4,0,11.9,0,14.7v6.9C0,24.5,5,26,9.6,26s9.6-1.5,9.6-4.3v-6.9C19.2,11.9,14.3,10.4,9.6,10.4
	L9.6,10.4z M17.5,21.7c0,1.1-3.1,2.6-7.9,2.6s-7.9-1.5-7.9-2.6v-0.9c2.4,1.3,5.1,1.9,7.9,1.8c2.7,0.1,5.4-0.5,7.9-1.8V21.7z
	 M17.5,18.2c0,1.1-3.1,2.6-7.9,2.6s-7.9-1.5-7.9-2.6v-0.9c2.4,1.3,5.1,1.9,7.9,1.8c2.7,0.1,5.4-0.5,7.9-1.8V18.2z M9.6,17.3
	c-4.8,0-7.9-1.5-7.9-2.6s3.1-2.6,7.9-2.6s7.9,1.5,7.9,2.6S14.4,17.3,9.6,17.3z"/>
</svg>
