<?xml version="1.0" encoding="utf-8"?>
<!-- Generator: Adobe Illustrator 22.0.0, SVG Export Plug-In . SVG Version: 6.00 Build 0)  -->
<svg version="1.1" id="Layer_1" xmlns="http://www.w3.org/2000/svg" xmlns:xlink="http://www.w3.org/1999/xlink" x="0px" y="0px"
	 viewBox="0 0 26 25" style="enable-background:new 0 0 26 25;" xml:space="preserve">
<style type="text/css">
	.st0{fill:#5B5B5B;}
</style>
<path class="st0" d="M13,14c3.9,0,7-3.1,7.1-7s-3.1-7-7-7.1C9.2,0,6,3.1,6,7c0,0,0,0,0,0C6,10.9,9.1,14,13,14z M13,1.8
	c2.9,0,5.2,2.3,5.2,5.1c0,2.9-2.3,5.2-5.1,5.2c-2.9,0-5.2-2.3-5.2-5.1c0,0,0,0,0-0.1C7.8,4.2,10.1,1.9,13,1.8L13,1.8z M0.9,25h24.2
	c0.5,0,0.9-0.4,0.9-0.9c0,0,0,0,0,0c0-4.8-3.9-8.8-8.7-8.8H8.7c-4.8,0-8.7,4-8.7,8.8C0,24.6,0.4,25,0.9,25C0.9,25,0.9,25,0.9,25z
	 M8.7,17.1h8.5c3.5,0,6.4,2.6,6.8,6H1.9C2.3,19.7,5.3,17.1,8.7,17.1z"/>
</svg>
