<?xml version="1.0" encoding="utf-8"?>
<!-- Generator: Adobe Illustrator 22.0.0, SVG Export Plug-In . SVG Version: 6.00 Build 0)  -->
<svg version="1.1" id="Layer_1" xmlns="http://www.w3.org/2000/svg" xmlns:xlink="http://www.w3.org/1999/xlink" x="0px" y="0px"
	 viewBox="0 0 22 24" style="enable-background:new 0 0 22 24;" xml:space="preserve">
<style type="text/css">
	.st0{fill:#EC1C23;}
</style>
<path class="st0" d="M21.1,0H0.9C0.4,0,0,0.4,0,0.9v22.2C0,23.6,0.4,24,0.9,24h15.6c0.2,0,0.5-0.1,0.6-0.3l4.6-4.6
	c0.2-0.2,0.3-0.4,0.3-0.6V0.9C22,0.4,21.6,0,21.1,0z M1.8,1.8h18.4v15.7h-3.7c-0.5,0-0.9,0.4-0.9,0.9v3.7H1.8L1.8,1.8L1.8,1.8z
	 M17.4,20.9v-1.5h1.5L17.4,20.9z M8.3,6.2h8.9c0.5,0,0.9-0.4,0.9-0.9c0-0.5-0.4-0.9-0.9-0.9H8.3c-0.5,0-0.9,0.4-0.9,0.9
	C7.4,5.7,7.8,6.1,8.3,6.2z M8.3,10.7h8.9c0.5,0,0.9-0.4,0.9-0.9c0-0.5-0.4-0.9-0.9-0.9H8.3c-0.5,0-0.9,0.4-0.9,0.9
	C7.4,10.3,7.8,10.7,8.3,10.7z M5.3,4.3c-0.2,0-0.5,0.1-0.6,0.3c-0.4,0.4-0.4,0.9,0,1.3c0.3,0.4,0.9,0.4,1.3,0c0,0,0,0,0,0
	c0.4-0.4,0.4-0.9,0-1.3C5.8,4.4,5.6,4.3,5.3,4.3z M5.3,8.9c-0.2,0-0.5,0.1-0.6,0.3c-0.4,0.4-0.4,0.9,0,1.3c0.3,0.4,0.9,0.4,1.3,0
	c0,0,0,0,0,0c0.4-0.4,0.4-0.9,0-1.3C5.8,8.9,5.6,8.9,5.3,8.9z M17.2,15.2c0.5,0,0.9-0.4,0.9-0.9c0-0.5-0.4-0.9-0.9-0.9H8.3
	c-0.5,0-0.9,0.4-0.9,0.9c0,0.5,0.4,0.9,0.9,0.9H17.2L17.2,15.2z M5.3,13.4c-0.2,0-0.5,0.1-0.6,0.3c-0.4,0.4-0.4,0.9,0,1.3
	C5,15.3,5.6,15.3,6,15c0,0,0,0,0,0c0.4-0.4,0.4-0.9,0-1.3C5.8,13.5,5.6,13.4,5.3,13.4z"/>
</svg>
