<?xml version="1.0" encoding="utf-8"?>
<!-- Generator: Adobe Illustrator 22.0.0, SVG Export Plug-In . SVG Version: 6.00 Build 0)  -->
<svg version="1.1" id="Layer_1" xmlns="http://www.w3.org/2000/svg" xmlns:xlink="http://www.w3.org/1999/xlink" x="0px" y="0px"
	 viewBox="0 0 26 24" style="enable-background:new 0 0 26 24;" xml:space="preserve">
<style type="text/css">
	.st0{fill:#5B5B5B;}
</style>
<path class="st0" d="M25.1,4h-7.2V1.4c0-0.8-0.7-1.5-1.5-1.4H9.6C8.7,0,8.1,0.6,8.1,1.4V4H0.9C0.4,4,0,4.4,0,4.9v18.3
	C0,23.6,0.4,24,0.9,24h24.2c0.5,0,0.9-0.4,0.9-0.9c0,0,0,0,0,0V4.9C26,4.4,25.6,4,25.1,4z M9.9,1.7h6.2v2.2H9.9V1.7z M24.2,22.3H1.8
	v-8.1h8.9V15h4.5v-0.9h9C24.2,14.1,24.2,22.3,24.2,22.3z M24.2,12.4h-9v-0.9h-4.5v0.9H1.8V5.7h22.4V12.4L24.2,12.4z"/>
</svg>
