<?xml version="1.0" encoding="utf-8"?>
<!-- Generator: Adobe Illustrator 22.0.0, SVG Export Plug-In . SVG Version: 6.00 Build 0)  -->
<svg version="1.1" id="Layer_1" xmlns="http://www.w3.org/2000/svg" xmlns:xlink="http://www.w3.org/1999/xlink" x="0px" y="0px"
	 viewBox="0 0 129 129" style="enable-background:new 0 0 129 129;" xml:space="preserve">
<style type="text/css">
	.st0{fill:#5B5B5B;}
</style>
<g>
	<g>
		<path class="st0" d="M10.5,58.9h44.3c2.3,0,4.1-1.8,4.1-4.1V10.5c0-2.3-1.8-4.1-4.1-4.1H10.5c-2.3,0-4.1,1.8-4.1,4.1v44.3
			C6.4,57,8.3,58.9,10.5,58.9z M14.6,14.6h36.1v36.1H14.6C14.6,50.7,14.6,14.6,14.6,14.6z"/>
		<path class="st0" d="M122.6,10.5c0-2.3-1.8-4.1-4.1-4.1H74.2c-2.3,0-4.1,1.8-4.1,4.1v44.3c0,2.3,1.8,4.1,4.1,4.1h44.3
			c2.3,0,4.1-1.8,4.1-4.1V10.5z M114.4,50.7H78.3V14.6h36.1V50.7z"/>
		<path class="st0" d="M10.5,122.6h44.3c2.3,0,4.1-1.8,4.1-4.1V74.2c0-2.3-1.8-4.1-4.1-4.1H10.5c-2.3,0-4.1,1.8-4.1,4.1v44.3
			C6.4,120.7,8.3,122.6,10.5,122.6z M14.6,78.3h36.1v36.1H14.6C14.6,114.4,14.6,78.3,14.6,78.3z"/>
		<path class="st0" d="M118.5,70.1H74.2c-2.3,0-4.1,1.8-4.1,4.1v44.3c0,2.3,1.8,4.1,4.1,4.1h44.3c2.3,0,4.1-1.8,4.1-4.1V74.2
			C122.6,72,120.7,70.1,118.5,70.1z M114.4,114.4H78.3V78.3h36.1V114.4z"/>
	</g>
</g>
</svg>
