<?xml version="1.0" encoding="utf-8"?>
<!-- Generator: Adobe Illustrator 22.0.0, SVG Export Plug-In . SVG Version: 6.00 Build 0)  -->
<svg version="1.1" id="Layer_1" xmlns="http://www.w3.org/2000/svg" xmlns:xlink="http://www.w3.org/1999/xlink" x="0px" y="0px"
	 viewBox="0 0 480.6 480.6" style="enable-background:new 0 0 480.6 480.6;" xml:space="preserve">
<style type="text/css">
	.st0{fill:#EC1C23;}
</style>
<g>
	<path class="st0" d="M389,1.5H100.1c-42.7,0-77.4,29.1-77.4,64.9v357.1c0,31.2,28.5,55.6,64.9,55.6h373c5,0,9.8-2.1,13.1-5.7
		c3.1-3.4,4.5-7.8,4.1-12.4v-0.1V103.8c0-10-8.2-18.2-18.2-18.2s-18.2,8.2-18.2,18.2v336.8H86.6c-13.8,0-28.5-7.3-28.5-18.1
		s14.7-18.1,28.5-18.1H389c10,0,18.2-8.2,18.2-18.2V19.7C407.2,9.7,399,1.5,389,1.5z M370.8,367.9H87.7c-8.8,0-17.4,1.5-25.5,4.4
		l-2,0.7V66.4c0-15.2,17.9-27.5,39.9-27.5h270.7L370.8,367.9L370.8,367.9z"/>
	<path class="st0" d="M285.9,110.5H138c-9.5,0-18.2,8.7-18.2,18.2c0,10,8.2,18.2,18.2,18.2h146.8c10.3,0,19.3-8.5,19.3-18.2
		C304.1,118.7,295.9,110.5,285.9,110.5z"/>
</g>
</svg>
