<?xml version="1.0" encoding="utf-8"?>
<!-- Generator: Adobe Illustrator 22.0.0, SVG Export Plug-In . SVG Version: 6.00 Build 0)  -->
<svg version="1.1" id="Layer_1" xmlns="http://www.w3.org/2000/svg" xmlns:xlink="http://www.w3.org/1999/xlink" x="0px" y="0px"
	 viewBox="0 0 489.4 489.4" style="enable-background:new 0 0 489.4 489.4;" xml:space="preserve">
<style type="text/css">
	.st0{fill:#EC1C23;}
</style>
<g>
	<path class="st0" d="M398.6,309.2c-34.2,0-64.1,19.2-79.3,47.4l-52.4-99.3L386.6,29.6c5.2-9.4,2.1-21.9-8.3-27.1
		c-9.4-5.2-21.9-2.1-27.1,8.3l-107,203.5L137.6,11.8c-5.2-9.4-16.7-13.5-27.1-8.3c-9.4,5.2-13.5,16.7-8.3,27.1l119.7,226.2
		L169.7,356c-15.4-27.9-45-46.8-79-46.8c-49.7,0-90.1,40.4-90.1,90.1s40.4,90.1,90.1,90.1c37.1,0,69.1-22.6,82.9-54.7l71-135.2
		l69.5,131.2c12.8,34.2,45.8,58.6,84.5,58.6c49.7,0,90.1-40.4,90.1-90.1S448.3,309.2,398.6,309.2z M90.7,448.5
		c-27.1,0-49.1-22-49.1-49.1s22-49.1,49.1-49.1s49.1,22,49.1,49.1S117.8,448.5,90.7,448.5z M398.6,448.5c-27.1,0-49.1-22-49.1-49.1
		s22-49.1,49.1-49.1s49.1,22,49.1,49.1S425.7,448.5,398.6,448.5z"/>
</g>
</svg>
