<svg xmlns="http://www.w3.org/2000/svg" viewBox="0 0 308.99 31.75"><defs><style>.cls-1{fill:#ed1c24;}</style></defs><title>Asset 1</title><g id="Layer_2" data-name="Layer 2"><g id="Layer_1-2" data-name="Layer 1"><path class="cls-1" d="M16.05.68A19.22,19.22,0,0,1,24.58,2.6V8.71a12.4,12.4,0,0,0-7.46-2.35c-5.25,0-10.55,3-10.55,10.2,0,6.57,5.34,9.47,10.55,9.47a11.55,11.55,0,0,0,7.68-2.47v6.27a19.85,19.85,0,0,1-8.67,1.92C8.15,31.75,0,27,0,16.56,0,5.63,8.07.68,16.05.68Z"/><path class="cls-1" d="M34.53,0V31.16H28.59V0Z"/><path class="cls-1" d="M47.8,10.07c8.49,0,11.22,6.7,9.86,12.76H43.23c.69,3,3.84,4.23,7.22,4.23a15.33,15.33,0,0,0,6.18-1.24v4.65a19.47,19.47,0,0,1-7.51,1.28c-6.49,0-11.86-3.71-11.86-10.84A10.32,10.32,0,0,1,47.8,10.07ZM48,14.6A4.51,4.51,0,0,0,43.19,19h9.13C52.54,17.58,51.73,14.6,48,14.6Z"/><path class="cls-1" d="M80.62,10.67,72.17,31.16H65.94L57.49,10.67H63.8l5.25,14.21L74.3,10.67Z"/><path class="cls-1" d="M90.73,10.07c8.5,0,11.23,6.7,9.86,12.76H86.17c.68,3,3.84,4.23,7.21,4.23a15.34,15.34,0,0,0,6.19-1.24v4.65a19.51,19.51,0,0,1-7.51,1.28c-6.49,0-11.87-3.71-11.87-10.84A10.32,10.32,0,0,1,90.73,10.07ZM91,14.6A4.52,4.52,0,0,0,86.12,19h9.14C95.47,17.58,94.66,14.6,91,14.6Z"/><path class="cls-1" d="M117,10.24V16c-3.24-.56-6.36.68-7.6,3.11v12h-5.93V10.67h5.25v3.07C110.15,11.48,113.14,9.86,117,10.24Z"/><path class="cls-1" d="M134.05,1.28c6.36,0,10.33,2.43,10.33,7.55a6.42,6.42,0,0,1-4.52,6.53c2.94.86,5.72,3,5.72,7.43,0,6.79-6.53,8.37-11.74,8.37H121V1.28Zm0,17h-6.74V26h6.4c2.86,0,5.42-.6,5.42-3.84S136.66,18.27,134.09,18.27ZM133.5,6.53h-6.11v6.83h6.45c2.43,0,4.18-1.11,4.18-3.42S136.31,6.53,133.5,6.53Z"/><path class="cls-1" d="M163.67.68c10.59,0,15.88,7.43,15.88,15.54s-5.29,15.53-15.88,15.53-15.88-7.42-15.88-15.53S153.09.68,163.67.68Zm0,5.94c-6.23,0-9.35,4.35-9.35,9.6s3.12,9.6,9.35,9.6,9.3-4.35,9.3-9.6S169.86,6.62,163.67,6.62Z"/><path class="cls-1" d="M177.5,31.16l10.71-15.5L178.14,1.28h7.47l6.61,9.82,6.58-9.82h7.51L196.23,15.66,207,31.16h-7.51l-7.22-10.89L185,31.16Z"/><path class="cls-1" d="M212.32,18.74a3.32,3.32,0,0,1-3.62-3.5,3.61,3.61,0,0,1,7.21,0A3.29,3.29,0,0,1,212.32,18.74Zm0,13a3.34,3.34,0,0,1-3.62-3.5,3.61,3.61,0,0,1,7.21,0A3.31,3.31,0,0,1,212.32,31.71Z"/><path class="cls-1" d="M234.64.68a19.26,19.26,0,0,1,8.54,1.92V8.71a12.41,12.41,0,0,0-7.47-2.35c-5.25,0-10.54,3-10.54,10.2,0,6.57,5.33,9.47,10.54,9.47a11.53,11.53,0,0,0,7.68-2.47v6.27a19.8,19.8,0,0,1-8.66,1.92c-8,0-16.13-4.78-16.13-15.19C218.64,5.63,226.66.68,234.64.68Z"/><path class="cls-1" d="M247.79,31.16V1.28h12.29c5.8,0,11.86,2.18,11.86,9.73,0,5.12-2.9,7.73-6.53,8.88l8.92,11.27H267L258.88,20.7h-4.69V31.16Zm6.4-15.8h6.19c2.69,0,5-1.19,5-4.22s-2.34-4.23-5-4.23h-6.19Z"/><path class="cls-1" d="M309,1.28V31.16h-6.4V12.76l-7.9,12H291l-7.9-12V31.16h-6.4V1.28h5.93l10.25,15.54,10.2-15.54Z"/><path class="cls-1" d="M16.05.68A19.22,19.22,0,0,1,24.58,2.6V8.71a12.4,12.4,0,0,0-7.46-2.35c-5.25,0-10.55,3-10.55,10.2,0,6.57,5.34,9.47,10.55,9.47a11.55,11.55,0,0,0,7.68-2.47v6.27a19.85,19.85,0,0,1-8.67,1.92C8.15,31.75,0,27,0,16.56,0,5.63,8.07.68,16.05.68Z"/><path class="cls-1" d="M34.53,0V31.16H28.59V0Z"/><path class="cls-1" d="M47.8,10.07c8.49,0,11.22,6.7,9.86,12.76H43.23c.69,3,3.84,4.23,7.22,4.23a15.33,15.33,0,0,0,6.18-1.24v4.65a19.47,19.47,0,0,1-7.51,1.28c-6.49,0-11.86-3.71-11.86-10.84A10.32,10.32,0,0,1,47.8,10.07ZM48,14.6A4.51,4.51,0,0,0,43.19,19h9.13C52.54,17.58,51.73,14.6,48,14.6Z"/><path class="cls-1" d="M80.62,10.67,72.17,31.16H65.94L57.49,10.67H63.8l5.25,14.21L74.3,10.67Z"/><path class="cls-1" d="M90.73,10.07c8.5,0,11.23,6.7,9.86,12.76H86.17c.68,3,3.84,4.23,7.21,4.23a15.34,15.34,0,0,0,6.19-1.24v4.65a19.51,19.51,0,0,1-7.51,1.28c-6.49,0-11.87-3.71-11.87-10.84A10.32,10.32,0,0,1,90.73,10.07ZM91,14.6A4.52,4.52,0,0,0,86.12,19h9.14C95.47,17.58,94.66,14.6,91,14.6Z"/><path class="cls-1" d="M117,10.24V16c-3.24-.56-6.36.68-7.6,3.11v12h-5.93V10.67h5.25v3.07C110.15,11.48,113.14,9.86,117,10.24Z"/><path class="cls-1" d="M134.05,1.28c6.36,0,10.33,2.43,10.33,7.55a6.42,6.42,0,0,1-4.52,6.53c2.94.86,5.72,3,5.72,7.43,0,6.79-6.53,8.37-11.74,8.37H121V1.28Zm0,17h-6.74V26h6.4c2.86,0,5.42-.6,5.42-3.84S136.66,18.27,134.09,18.27ZM133.5,6.53h-6.11v6.83h6.45c2.43,0,4.18-1.11,4.18-3.42S136.31,6.53,133.5,6.53Z"/><path class="cls-1" d="M163.67.68c10.59,0,15.88,7.43,15.88,15.54s-5.29,15.53-15.88,15.53-15.88-7.42-15.88-15.53S153.09.68,163.67.68Zm0,5.94c-6.23,0-9.35,4.35-9.35,9.6s3.12,9.6,9.35,9.6,9.3-4.35,9.3-9.6S169.86,6.62,163.67,6.62Z"/><path class="cls-1" d="M177.5,31.16l10.71-15.5L178.14,1.28h7.47l6.61,9.82,6.58-9.82h7.51L196.23,15.66,207,31.16h-7.51l-7.22-10.89L185,31.16Z"/><path class="cls-1" d="M212.32,18.74a3.32,3.32,0,0,1-3.62-3.5,3.61,3.61,0,0,1,7.21,0A3.29,3.29,0,0,1,212.32,18.74Zm0,13a3.34,3.34,0,0,1-3.62-3.5,3.61,3.61,0,0,1,7.21,0A3.31,3.31,0,0,1,212.32,31.71Z"/><path class="cls-1" d="M234.64.68a19.26,19.26,0,0,1,8.54,1.92V8.71a12.41,12.41,0,0,0-7.47-2.35c-5.25,0-10.54,3-10.54,10.2,0,6.57,5.33,9.47,10.54,9.47a11.53,11.53,0,0,0,7.68-2.47v6.27a19.8,19.8,0,0,1-8.66,1.92c-8,0-16.13-4.78-16.13-15.19C218.64,5.63,226.66.68,234.64.68Z"/><path class="cls-1" d="M247.79,31.16V1.28h12.29c5.8,0,11.86,2.18,11.86,9.73,0,5.12-2.9,7.73-6.53,8.88l8.92,11.27H267L258.88,20.7h-4.69V31.16Zm6.4-15.8h6.19c2.69,0,5-1.19,5-4.22s-2.34-4.23-5-4.23h-6.19Z"/><path class="cls-1" d="M309,1.28V31.16h-6.4V12.76l-7.9,12H291l-7.9-12V31.16h-6.4V1.28h5.93l10.25,15.54,10.2-15.54Z"/></g></g></svg>